<svg height="1024" width="1024" xmlns="http://www.w3.org/2000/svg"><g stroke="#000" transform="matrix(-.99582912 0 0 -.99239778 1021.6871 1021.4805)"><path d="m8.592215 48.342255h1007.1639v927.04303h-1007.1639z" fill="#f7d6d6" stroke-width="2.011846"/><g fill="#da3636"><path d="m8.592215 325.98459h60.09816v48.992397h-60.09816z" stroke-width="2.011846"/><path d="m8.592215 374.97699h60.09816v45.456867h-60.09816z" stroke-width="2.011846"/><path d="m8.592215 420.43387h83.836746v115.66246h-83.836746z" stroke-width="2.011846"/><path d="m92.428963 459.32474h58.083767v56.063465h-58.083767z" stroke-width="2.011846"/><path d="m92.428963 420.43387h58.083771v38.890869h-58.083771z" stroke-width="2.011846"/><path d="m8.592215 536.09631h141.41544v112.632h-141.41544z" stroke-width="2.011846"/><path d="m8.592215 648.72833h141.41544v92.42897h-141.41544z" stroke-width="2.011846"/><path d="m8.592215 741.15729h141.41544v92.42894h-141.41544z" stroke-width="2.011846"/><path d="m8.592215 833.58624h141.41544v141.79906h-141.41544z" stroke-width="2.011846"/><path d="m237.38585 833.58624h95.964493v141.79904h-95.964493z" stroke-width="2.011846"/><path d="m333.35034 833.58624h89.903572v141.79904h-89.903572z" stroke-width="2.011846"/><path d="m423.25391 833.58624h91.418808v141.79904h-91.418808z" stroke-width="2.011846"/><path d="m514.67273 826.01007h89.398506v149.37518h-89.398506z" stroke-width="2.011846"/><path d="m514.67273 826.01007h64.144676v53.033039h-64.144676z" stroke-width="2.011846"/><path d="m604.07123 826.01007h180.31221v149.37521h-180.31221z" stroke-width="2.011846"/><path d="m784.38342 833.58624h66.165009v34.850262h-66.165009z" stroke-width="2.011846"/><path d="m875.29718 740.14716h140.45891v235.23814h-140.45891z" stroke-width="2.011846"/><path d="m875.29718 646.70801h140.45891v93.439133h-140.45891z" stroke-width="2.011846"/><path d="m955.09924 488.11407h60.656864v46.467018h-60.656864z" stroke-width="2.011846"/><path d="m955.09924 398.71558h60.656853v89.398499h-60.656853z" stroke-width="2.011846"/><path d="m955.09924 351.74347h60.656853v46.972095h-60.656853z" stroke-width="2.011846"/><path d="m955.09924 306.79169h60.656853v44.951775h-60.656853z" stroke-width="2.011846"/><path d="m955.09924 259.81961h60.656853v46.972088h-60.656853z" stroke-width="2.011846"/><path d="m960.65509 215.87796h55.101025v43.941647h-55.101025z" stroke-width="2.011846"/><path d="m960.65509 170.4211h55.101006v45.45686h-55.101006z" stroke-width="2.011846"/><path d="m960.65509 123.95408h55.101006v46.467014h-55.101006z" stroke-width="2.011846"/><path d="m921.25909 48.342255h46.467018v61.469692h-46.467018z" stroke-width="2.011846"/><path d="m873.78192 48.342255h47.477142v61.469692h-47.477142z" stroke-width="2.011846"/><path d="m829.33527 48.342255h44.446682v61.469692h-44.446682z" stroke-width="2.011846"/><path d="m784.88855 48.342255h44.446739v61.469692h-44.446739z" stroke-width="2.011846"/><path d="m740.44183 48.342255h44.446735v61.469692h-44.446735z" stroke-width="2.011846"/><path d="m694.98492 48.342255h45.456882v61.469692h-45.456882z" stroke-width="2.011846"/><path d="m821.25403 135.06577h110.6117v56.063465h-110.6117z" stroke-width="2.011846"/><path d="m821.25403 191.12923h110.61185v94.449234h-110.61185z" stroke-width="2.011846"/><path d="m876.30731 285.57846h55.55854v21.718307h-55.55854z" stroke-width="2.011846"/><path d="m876.30731 307.29675h55.558575v43.436577h-55.558575z" stroke-width="2.011846"/><path d="m635.89105 196.68506h185.36301v51.012703h-185.36301z" stroke-width="2.011846"/><path d="m750.03827 247.69775h71.215767v96.974655h-71.215767z" stroke-width="2.011846"/><path d="m696.50018 247.69775h53.53809v96.974648h-53.53809z" stroke-width="2.011846"/><path d="m635.89105 247.69775h60.609131v36.870575h-60.609131z" stroke-width="2.011846"/><path d="m635.89105 284.56833h60.609131v60.104073h-60.609131z" stroke-width="2.011846"/><path d="m670.23621 321.94397h26.263969v22.72842h-26.263969z" stroke-width="2.011846"/><path d="m782.36316 135.06577h38.890881v61.619293h-38.890881z" stroke-width="2.011846"/><path d="m740.44183 135.06577h41.921345v61.619293h-41.921345z" stroke-width="2.011846"/><path d="m652.05349 135.06577h88.38834v61.61929h-104.55078v-30.80965z" stroke-width="2.011846"/><path d="m651.5625 48.34375v46.3125h10.09375v15.15625h33.34375v-61.46875z" stroke-width="2.011846"/><path d="m8.59375 48.34375v191.28125h179.28125v-72.24889l16.6875-15.65736v-103.375z" stroke-width="2.011846"/><path d="m149.50258 155.77388h29.28774l9.58976 11.12833-.50508 51.50113h-38.37242z" stroke-width="2.011846"/><path d="m229.16484 209.35725 30.70594.13989 37.04748 16.83307.42899 35.68903h-68.18241z" stroke-width="2.011846" transform="matrix(.91212863 -.40990409 .40990409 .91212863 0 0)"/><path d="m229.16484 262.01923h122.79081l-17.20051 38.33804-10.50265-4.81584-95.08765-.19025z" stroke-width="2.011846" transform="matrix(.91212863 -.40990409 .40990409 .91212863 0 0)"/><path d="m335.87572 48.342255v36.277525l27.7256.114475 15.02037 32.377135 49.80989-22.384209v-46.384926z" stroke-width="2.011846"/><path d="m428.45742 136.74696h96.8219l13.63706-29.46039v-58.944315h-110.4848z" stroke-width="2.011846"/><path d="m661.65625 109.8125h-24.24999l-29.29443 64.64921-82.83251-37.71475 13.63706-29.46039v-58.944315l112.64612.0015v46.3125h10.09375z" stroke-width="2.011846"/><path d="m204.5625 151.71875 17.68163 17.68163h105.12499l-32.52492-72.375244 28.06511-12.458892 12.96641.05354v-36.277525l-131.31322.0015z" stroke-width="2.011846"/><path d="m330.09347 175.46266 25.9853 51.52698 51.51778 61.11423h124.75384l52.02286-60.10408 23.73858-53.53808-82.83251-37.71475-96.8219-.002-11.5538-.0855z" stroke-width="2.011846"/><path d="m419.71838 288.10387v48.48732c32.82996 12.62691 69.65311 10.02829 100.51018 0v-48.48732z" stroke-width="2.011846"/><path d="m520.22858 288.10388h53.538086v45.456863h-53.538086z" stroke-width="2.011846"/><path d="m545.50627 272.90436 15.63347 15.19952h41.41625v-17.1726l-32.0548-26.90454z" stroke-width="2.011846"/><path d="m602.55599 270.93128h5.47973v-56.217h-17.77173l-5.89074 13.28551-13.87206 16.02695z" stroke-width="2.011846"/><path d="m608.03572 214.71428v-40.08092l-17.77173 40.08092z" stroke-width="2.011846"/><path d="m407.59655 288.10387h-29.04188l16.80782-14.51295z" stroke-width="2.011846"/><path d="m311.78571 169.40038v-17.36467l6.32779-3.23116 9.25562 20.59583z" stroke-width="2.011846"/><path d="m208.92857 195.07143v53.21428h50.35714v-59.28571h-44.64285z" stroke-width="2.011846"/><path d="m259.28571 189h45.000103v59.28569h-45.000103z" stroke-width="2.011846"/><path d="m281.42856 248.28569h52.5v96.428596h-52.5z" stroke-width="2.011846"/><path d="m208.92857 248.28571h72.499985v96.428574h-72.499985z" stroke-width="2.011846"/><path d="m304.28581 189v59.28569h29.64275z" stroke-width="2.011846"/><path d="m90 330.4375v66.78125h-21.3125v23.21875h119.53125v-90z" stroke-width="2.011846"/><path d="m187.875 239.625v73.30357h-16.80357v17.50893h-81.07143v66.78125h-21.309626v-71.23416h-60.0981594l.00154-86.35959z" stroke-width="2.011846"/><path d="m237.38585 833.58624h-59.88585v30.7709h-27.49235v111.02814h87.3782z" stroke-width="2.011846"/><path d="m248 468.40625v59.09375h19.1875v59.09375h-19.1875v57.59375h179.8125v-175.78125z" stroke-width="2.011846"/><path d="m209.60666 527.51001h57.578693v59.093925h-57.578693z" stroke-width="2.011846"/><path d="m267.1875 527.5 36.02679-59.09375" stroke-width="2.011846"/><path d="m267.18535 586.59375 34.60036 57.59375" stroke-width="2.011846"/><path d="m241.9375 413.375v55.03125h185.875v307.09375h48.46875v-307.09375-55.03125z" stroke-width="2.011846"/><path d="m330.31989 644.1875h97.492615v131.3125h-97.492615z" stroke-width="2.011846"/><path d="m278.29703 644.1875h52.022858v131.3125h-52.022858z" stroke-width="2.011846"/><path d="m209.10158 644.1875h69.19545v29.794643h-69.19545z" stroke-width="2.011846"/><path d="m209.10158 673.98212h69.19545v101.51785h-69.19545z" stroke-width="2.011846"/><path d="m875.71429 372.21429h57.142857v26.428572h-57.142857z" stroke-width="2.011846"/><path d="m875.71429 398.64285h57.14291v45.71431h-57.14291z" stroke-width="2.011846"/><path d="m875.71429 444.35718h57.142891v44.285732h-57.142891z" stroke-width="2.011846"/><path d="m875.71429 488.64291h57.142838v45.950836h-57.142838z" stroke-width="2.011846"/><path d="m832.84375 534.59375v52.96875h26.8125v59.15625h156.09375v-112.125h-156.09375z" stroke-width="2.011846"/><path d="m821.25 285.59375v40.1875h17.6875v18.90625h37.375v-59.09375z" stroke-width="2.011846"/><path d="m718.21429 372.21429h157.50002v92.142845h-157.50002z" stroke-width="2.011846"/><path d="m786.42859 464.35715h89.285721v52.14286h-89.285721z" stroke-width="2.011846"/><path d="m832.84375 516.5h42.870544v18.093742h-42.870544z" stroke-width="2.011846"/><path d="m786.42859 516.5h46.415161v42.857136h-46.415161z" stroke-width="2.011846"/><path d="m779.28571 559.35712h53.558033v43.928577h-53.558033z" stroke-width="2.011846"/><path d="m606.59662 372.21429h111.61768v92.142845h-111.61768z" stroke-width="2.011846"/><path d="m557.09912 372.21429h49.49749v46.199253h-49.49749z" stroke-width="2.011846"/><path d="m557.09912 418.41354h49.497498v45.943592h-49.497498z" stroke-width="2.011846"/><path d="m567.70575 464.35715h38.890888v52.04121h-38.890888z" stroke-width="2.011846"/><path d="m567.70575 516.39838h38.890865v86.873123h-38.890865z" stroke-width="2.011846"/><path d="m606.59662 464.35715h85.35788v138.91437h-85.35788z" stroke-width="2.011846"/><path d="m691.9545 603.27151h87.33121v-43.91439h7.14288v-94.99997h-94.47409z" stroke-width="2.011846"/><path d="m730.34027 644.18262h93.43911v136.87567h-93.43911z" stroke-width="2.011846"/><path d="m730.34027 644.18262h54.043182v96.469597h-54.043182z" stroke-width="2.011846"/><path d="m695.49005 644.18262h34.850243v38.385822h-34.850243z" stroke-width="2.011846"/><path d="m634.88086 653.68719h60.609104v28.881376h-60.609104z" stroke-width="2.011846"/><path d="m566.19049 644.18262h68.690369v38.385822h-68.690369z" stroke-width="2.011846"/><path d="m511.64227 644.18262h54.548225v108.08635h-54.548225z" stroke-width="2.011846"/><path d="m566.1875 696.21875v56.0625h13.625 20.21875v28.78125h130.3125v-84.84375z" stroke-width="2.011846"/><path d="m600.03064 728.5304h54.548237v52.527916h-54.548237z" stroke-width="2.011846"/><path d="m511.64227 752.26898h68.170227v28.793533h-68.170227z" stroke-width="2.011846"/><path d="m150.04068 53.510307h90.534554v106.13573h-90.534554z" stroke-width="2" transform="matrix(-1.0041883 0 0 -1.0076605 1025.9663 1029.3055)"/><path d="m10.15625 898.46875v75.03125h47.84375v-61h7.03125v-14.03125h-7.03125z" stroke-width="2" transform="matrix(-1.0041883 0 0 -1.0076605 1025.9663 1029.3055)"/><path d="m462.88781 735.56685 15.56826 15.08397 13.10101-15.08396z" stroke-width="2" transform="matrix(-1.0041883 0 0 -1.0076605 1025.9663 1029.3055)"/></g></g></svg>